PathFileType	4	(X/Y/Z)	D:\TRACE\v60_Jaco2_6-2-23\JustBodyDRS_Motion2_6-v60.trc
DataRate	CameraRate	NumFrames	NumMarkers	Units	OrigDataRate	OrigDataStartFrame	OrigNumFrames
100.00	100.00	      17	9	mm	100.00	5899	      6741
Frame#	Time	front left toe			Front right toe			aft left toe			aft right toe			Arm			FL body			FR body			AL Body			AR Body			
		X1	Y1	Z1	X2	Y2	Z2	X3	Y3	Z3	X4	Y4	Z4	X5	Y5	Z5	X6	Y6	Z6	X7	Y7	Z7	X8	Y8	Z8	X9	Y9	Z9	

5899	58.980	-210.86101	170.90390	-332.49591	212.56393	33.65595	-378.17734	-113.44881	0.62628	279.74347	213.73820	121.66473	262.99338	-123.36197	1237.76672	-421.32751	-92.89434	608.57227	-473.52960	66.94083	610.78253	-488.24612	-8.01825	524.70721	464.99332	149.01067	520.53802	451.52533	
5900	58.990	-211.87515	166.23103	-333.58063	211.36833	32.95153	-378.41150	-114.48058	0.91536	279.25906	213.51062	117.09904	260.53409	-122.83556	1237.50256	-423.41992	-94.00391	608.02423	-474.15518	66.22201	609.93256	-488.71857	-9.75459	525.33362	464.73480	147.05710	521.49329	451.84683	
5901	59.000	-212.14180	160.35446	-335.36502	209.99265	32.24229	-378.57974	-116.02397	1.57901	279.13763	212.97150	111.31840	258.91187	-122.31950	1237.34302	-424.98294	-94.75685	607.28058	-474.96954	65.12403	609.10889	-489.40930	-12.08965	525.94427	463.97253	145.61731	522.08411	451.77301	
5902	59.010	-212.20407	153.17824	-337.62906	208.99207	31.65303	-378.71530	-117.00246	1.83022	278.89603	212.92641	105.04241	257.23969	-122.17389	1237.17188	-426.48215	-95.74990	606.67706	-475.77579	64.69535	608.35327	-490.46210	-13.51171	526.36072	463.57291	143.88411	522.04218	450.59351	
5903	59.020	-211.57881	144.62352	-339.64432	207.66486	30.48367	-379.16486	-118.22914	2.19999	278.71313	211.95863	97.55600	255.34314	-122.39910	1236.49951	-427.72534	-96.41193	605.74518	-476.53036	63.05743	607.10138	-490.67023	-15.43809	527.04340	463.05765	141.65620	522.20392	450.18903	
5904	59.030	-211.51439	135.55092	-342.27457	206.72821	29.86953	-379.15826	-119.59503	2.48606	278.49271	210.31361	88.80888	253.09036	-122.92226	1235.98718	-428.93112	-97.48335	605.06531	-477.15848	62.28273	606.14069	-491.16461	-17.62835	527.72705	462.48856	139.66457	522.21515	449.97327	
5905	59.040	-212.18750	125.18929	-345.06543	205.47086	29.11951	-379.40277	-120.65975	2.74389	278.12415	210.72298	79.60257	251.25058	-123.26402	1235.08154	-430.22617	-98.22691	604.44836	-477.88397	60.93843	605.19391	-491.42435	-19.42339	528.07098	461.92249	138.02618	522.73199	450.33444	
5906	59.050	-212.59587	114.84553	-348.01328	205.96664	28.61263	-379.30942	-122.30583	3.43351	277.77655	209.33157	68.61351	248.70775	-123.48024	1234.65405	-431.92883	-99.13165	603.91864	-478.70569	60.41858	604.12665	-491.98752	-21.30935	527.80719	461.32721	136.32439	522.51190	448.91879	
5907	59.060	-213.17284	104.66842	-350.58255	204.73473	27.73200	-379.79816	-123.34238	3.81873	277.39453	208.29019	57.48776	246.17543	-123.22787	1233.81702	-433.79572	-100.27692	603.25916	-479.54144	59.22456	603.53516	-492.88055	-23.20309	528.39288	460.54071	134.22780	522.53955	448.51492	
5908	59.070	-212.71034	94.41067	-352.58508	203.38452	26.69115	-379.95966	-124.91729	4.37305	276.79578	208.13872	48.41160	244.25737	-123.27589	1233.15686	-435.41693	-101.21528	602.49286	-480.50638	58.71955	602.24817	-493.61490	-24.91109	528.53003	459.66870	132.48209	522.52637	448.03534	
5909	59.080	-212.80019	84.41026	-353.60196	202.06438	25.94151	-380.23520	-126.11364	4.79299	276.49686	205.87248	38.83255	242.64093	-123.51102	1232.53308	-437.29254	-102.10379	601.45703	-481.43372	57.38047	601.55609	-494.41705	-27.08238	528.67279	458.85590	130.83116	523.03162	448.22821	
5910	59.090	-213.75577	74.42788	-353.90216	200.89597	24.98781	-380.65277	-126.36140	4.36455	276.39157	204.61919	30.27381	241.98300	-123.75031	1231.84912	-438.57352	-103.10519	600.74286	-482.44171	56.91909	600.45856	-495.51205	-28.54395	528.78400	458.15796	129.03433	522.68890	446.51840	
5911	59.100	-214.32738	64.51205	-353.26355	199.76427	23.84076	-381.05682	-127.46329	5.08836	276.01862	203.46420	21.75658	242.55637	-124.24416	1231.21777	-440.63519	-103.94021	599.73401	-483.47565	55.85533	599.56378	-496.20544	-30.68979	528.92053	457.52246	126.95050	523.18677	446.93597	
5912	59.110	-215.76405	55.84912	-352.50836	198.50327	22.96302	-381.38412	-128.52869	5.68349	275.88049	201.89911	15.13830	243.23915	-125.36695	1230.38757	-442.20374	-104.24335	598.56323	-484.19080	55.16323	598.38239	-497.42319	-32.74157	529.08533	456.22342	126.43062	522.64526	444.96484	
5913	59.120	-217.15877	48.61157	-351.46362	197.39270	22.34104	-381.55313	-129.31628	5.49669	275.61691	201.71358	16.35494	239.91476	-126.21737	1229.29016	-444.05777	-105.95301	598.10394	-485.79883	54.23796	597.41235	-498.32690	-34.12552	529.37146	455.17352	123.52490	523.15442	445.00235	
5914	59.130	-218.74243	41.97050	-351.07626	195.93178	21.17210	-381.99341	-130.72081	6.38255	275.40244	200.82841	14.63876	240.78230	-126.81774	1228.25098	-446.54544	-106.28964	596.48865	-486.71655	53.06915	596.14154	-499.24969	-36.18893	530.21930	454.36261	121.25156	523.84552	443.24655	
5915	59.140	-219.07629	34.71504	-350.84103	195.14522	20.30422	-382.09070	-131.73007	7.09959	274.96014	199.88268	15.59209	239.93192	-128.25255	1226.80347	-448.55048	-107.55245	594.90253	-488.18683	52.45596	594.84723	-500.49518	-38.40792	531.52338	453.46088	119.15209	525.35419	442.59369	
